<svg width="20" height="20" viewBox="0 0 20 20" fill="none" xmlns="http://www.w3.org/2000/svg">
<path fill-rule="evenodd" clip-rule="evenodd" d="M9.3294 1.01799C7.68319 1.1758 6.29538 1.65272 5.03947 2.49229C3.68473 3.39789 2.63717 4.59194 1.92438 6.04285C1.33624 7.23999 1.05343 8.3666 1.00591 9.70125C0.952519 11.2015 1.26097 12.6293 1.92836 13.9715C2.3985 14.9169 2.88155 15.5858 3.64723 16.3516C4.42136 17.1258 5.09314 17.6093 6.04084 18.0743C6.70211 18.3987 7.12906 18.5566 7.79943 18.7248C8.4896 18.898 9.0055 18.9706 9.71629 18.9948C11.7578 19.0642 13.7371 18.4375 15.3965 17.1962C15.8802 16.8344 16.7312 16.0035 17.074 15.5582C18.8187 13.2924 19.4068 10.5146 18.7204 7.78273C18.513 6.95741 18.0784 5.93556 17.6439 5.25136C16.9005 4.08096 15.7566 2.9541 14.6328 2.28528C13.1807 1.42098 11.5699 0.981232 9.92732 1.00061C9.66617 1.00367 9.3971 1.01152 9.3294 1.01799ZM10.7565 1.87659C13.1403 2.10858 15.2584 3.33985 16.6683 5.31313C17.767 6.85065 18.3043 8.86636 18.1201 10.7592C17.9389 12.622 17.1583 14.3128 15.8617 15.6515C15.2512 16.2817 14.697 16.7121 13.9721 17.1186C11.5255 18.4906 8.56719 18.5049 6.0936 17.1566C5.36509 16.7595 4.88749 16.3972 4.24456 15.7542C3.43793 14.9475 2.91552 14.1839 2.49417 13.1957C1.62075 11.1474 1.62574 8.83009 2.50802 6.77361C2.9342 5.78025 3.51791 4.9404 4.32999 4.15226C5.48816 3.02814 6.85648 2.30776 8.41493 2.00161C9.22023 1.84342 9.99214 1.80219 10.7565 1.87659ZM7.24804 4.76311C7.06701 4.78995 6.35014 5.06985 5.88257 5.29628C5.1427 5.65456 4.75708 6.33337 4.75708 7.27738C4.75708 7.9544 4.93375 8.59026 5.35243 9.42005C6.69701 12.0849 9.7548 14.7121 12.0663 15.1886C12.2078 15.2178 12.502 15.2416 12.7201 15.2416C13.4216 15.2416 13.9075 15.061 14.3258 14.6446C14.5784 14.3931 14.7284 14.1189 15.0478 13.3245C15.25 12.8215 15.2866 12.521 15.1836 12.2106C15.0757 11.8858 14.8534 11.7085 13.8125 11.1174C12.7587 10.5189 12.6476 10.4801 12.2618 10.5753C11.9641 10.6488 11.7497 10.8036 11.5456 11.0921C11.2923 11.4503 11.0028 11.5573 10.6817 11.4114C10.2672 11.2231 8.77548 9.73182 8.58749 9.31779C8.4385 8.98973 8.53782 8.71883 8.90502 8.45173C9.20735 8.2318 9.34867 8.03576 9.42352 7.73247C9.51795 7.34971 9.47814 7.23651 8.88068 6.18922C8.59551 5.68928 8.29458 5.20377 8.21192 5.11027C7.97012 4.83673 7.61474 4.70872 7.24804 4.76311ZM7.57992 5.66469C7.63525 5.72643 8.43154 7.08451 8.56202 7.33968C8.66075 7.53277 8.62632 7.61188 8.36095 7.80124C7.93966 8.10193 7.72388 8.47386 7.68628 8.96429C7.66609 9.22721 7.72465 9.50398 7.85416 9.75785C8.11158 10.2625 9.73528 11.8865 10.2399 12.144C10.4939 12.2736 10.7705 12.3322 11.0335 12.312C11.5166 12.2749 11.8834 12.0645 12.1847 11.6515C12.2848 11.5143 12.3984 11.3976 12.4427 11.3864C12.4884 11.375 12.5794 11.396 12.6578 11.4361C12.913 11.5666 14.2708 12.363 14.3326 12.4184C14.4303 12.506 14.4065 12.6471 14.2134 13.1242C13.8734 13.9642 13.775 14.1027 13.3917 14.2803C13.2073 14.3658 13.1298 14.3796 12.7762 14.3901C12.4323 14.4002 12.3198 14.3886 12.0247 14.3127C10.1155 13.8216 7.5705 11.6373 6.281 9.3829C5.51232 8.039 5.37944 6.86243 5.93034 6.27719C6.06599 6.13307 6.18755 6.06874 6.81462 5.80909C7.33485 5.59367 7.49002 5.5644 7.57992 5.66469Z" fill="white" stroke="white" stroke-width="0.4"/>
</svg>
