<svg width="99" height="23" viewBox="0 0 99 23" fill="none" xmlns="http://www.w3.org/2000/svg">
<path d="M22.4423 21.132C22.4797 21.132 22.4983 21.2813 22.4983 21.58C22.4983 21.86 22.4797 22 22.4423 22H15.0223C14.9663 22 14.9383 21.86 14.9383 21.58C14.9383 21.2813 14.9663 21.132 15.0223 21.132C15.7503 21.132 16.2077 21.1133 16.3943 21.076C16.7117 21.02 16.9263 20.8987 17.0383 20.712C17.225 20.3947 16.973 19.4147 16.2823 17.772L15.8063 16.624H6.14632L5.61432 17.828C5.01699 19.2653 4.84899 20.18 5.11032 20.572C5.37166 20.9453 6.23032 21.132 7.68632 21.132C7.74232 21.132 7.77032 21.2813 7.77032 21.58C7.77032 21.86 7.74232 22 7.68632 22H0.938324C0.900991 22 0.882324 21.86 0.882324 21.58C0.882324 21.2813 0.900991 21.132 0.938324 21.132C1.79699 21.132 2.45032 20.936 2.89832 20.544C3.36499 20.1333 3.90632 19.228 4.52232 17.828L10.5983 3.884L10.0383 2.568C9.98232 2.47467 10.001 2.40934 10.0943 2.372L12.1103 1.924C12.2037 1.924 12.2597 1.952 12.2783 2.008L18.8303 17.772C19.5023 19.396 20.0623 20.376 20.5103 20.712C20.7903 20.9173 21.0423 21.0387 21.2663 21.076C21.4903 21.1133 21.8823 21.132 22.4423 21.132ZM6.56632 15.644H15.4143L11.1303 5.228L6.56632 15.644Z" fill="white"/>
<path d="M24.081 22C24.025 22 23.997 21.86 23.997 21.58C23.997 21.3 24.025 21.16 24.081 21.16C25.089 21.16 25.705 21.0387 25.929 20.796C26.153 20.5347 26.265 19.9093 26.265 18.92V4.92C26.265 3.89334 26.1436 3.184 25.901 2.792C25.6583 2.38134 25.173 2.19467 24.445 2.232C24.389 2.232 24.3516 2.12 24.333 1.896C24.333 1.672 24.361 1.55067 24.417 1.532L26.265 1.224C26.4703 1.18667 26.7036 1.14934 26.965 1.112C27.245 1.056 27.469 1.01867 27.637 1C27.805 0.962669 27.945 0.93467 28.057 0.916003C28.3183 0.82267 28.449 0.87867 28.449 1.084V18.92C28.449 19.928 28.561 20.5533 28.785 20.796C29.009 21.0387 29.625 21.16 30.633 21.16C30.689 21.16 30.717 21.3 30.717 21.58C30.717 21.86 30.689 22 30.633 22H24.081Z" fill="white"/>
<path d="M36.2783 22C36.1849 22 36.1383 21.86 36.1383 21.58C36.1383 21.2813 36.1849 21.132 36.2783 21.132H37.7063C38.6396 21.0947 39.2183 20.9733 39.4423 20.768C39.9089 20.3573 40.1423 19.5547 40.1423 18.36V3.408H38.3503C37.1929 3.408 36.2876 3.56667 35.6343 3.884C35.1116 4.20134 34.7009 4.724 34.4023 5.452C34.1036 6.18 33.7209 7.468 33.2543 9.316C33.2356 9.39067 33.1236 9.40934 32.9183 9.372C32.7129 9.33467 32.6103 9.288 32.6103 9.232L33.5063 1.336C33.5063 1.29867 33.5903 1.27067 33.7583 1.252C33.9449 1.23334 34.0569 1.252 34.0943 1.308C34.3183 1.73734 34.6823 2.02667 35.1863 2.176C35.6903 2.32534 36.4836 2.4 37.5663 2.4H45.2383C46.2649 2.4 47.0303 2.32534 47.5343 2.176C48.0383 2.008 48.4116 1.728 48.6543 1.336C48.6916 1.28 48.7943 1.252 48.9623 1.252C49.1303 1.252 49.2236 1.28 49.2423 1.336L50.1383 9.232C50.1383 9.288 50.0356 9.33467 49.8303 9.372C49.6249 9.40934 49.5129 9.39067 49.4943 9.316C49.1396 7.76667 48.8316 6.64667 48.5703 5.956C48.3089 5.24667 47.9729 4.696 47.5623 4.304C47.1516 3.89334 46.7316 3.64134 46.3023 3.548C45.8356 3.45467 45.2009 3.408 44.3983 3.408H42.5783V18.36C42.5783 19.5547 42.8116 20.3573 43.2783 20.768C43.4276 20.88 43.6703 20.964 44.0063 21.02C44.4729 21.0947 45.2849 21.132 46.4423 21.132C46.5169 21.132 46.5543 21.2813 46.5543 21.58C46.5543 21.86 46.5169 22 46.4423 22H36.2783Z" fill="white"/>
<path d="M58.5531 22.308C56.3131 22.308 54.4745 21.5893 53.0371 20.152C51.6185 18.7333 50.9091 16.8853 50.9091 14.608C50.9091 12.3307 51.6185 10.4827 53.0371 9.064C54.4745 7.608 56.3131 6.88 58.5531 6.88C60.8305 6.88 62.6785 7.608 64.0971 9.064C65.5345 10.5013 66.2531 12.3493 66.2531 14.608C66.2531 16.8667 65.5345 18.7147 64.0971 20.152C62.6598 21.5893 60.8118 22.308 58.5531 22.308ZM54.8011 19.592C55.7531 20.8427 57.0038 21.468 58.5531 21.468C60.1025 21.468 61.3531 20.8427 62.3051 19.592C63.2571 18.3413 63.7331 16.6707 63.7331 14.58C63.7331 12.508 63.2571 10.856 62.3051 9.624C61.3531 8.37334 60.1025 7.748 58.5531 7.748C57.0038 7.748 55.7531 8.37334 54.8011 9.624C53.8678 10.8933 53.4011 12.5547 53.4011 14.608C53.4011 16.6613 53.8678 18.3227 54.8011 19.592Z" fill="white"/>
<path d="M82.6272 7.076V18.024C82.6272 18.7707 82.6552 19.3307 82.7112 19.704C82.7672 19.928 82.8699 20.1147 83.0192 20.264C83.1686 20.4133 83.3179 20.5253 83.4672 20.6C83.6352 20.656 83.9432 20.768 84.3912 20.936C84.4472 20.9547 84.4752 21.076 84.4752 21.3C84.4752 21.524 84.4472 21.636 84.3912 21.636L80.8632 22.28C80.7886 22.2987 80.6952 22.2707 80.5832 22.196C80.4899 22.1213 80.4526 22.0467 80.4712 21.972L80.6392 19.508H80.4712C79.2579 20.4787 78.1752 21.188 77.2232 21.636C76.2899 22.084 75.3192 22.308 74.3112 22.308C72.8179 22.308 71.7166 21.8413 71.0072 20.908C70.3166 19.9747 69.9712 18.4907 69.9712 16.456V11.192C69.9712 10.128 69.8779 9.43734 69.6912 9.12C69.5232 8.80267 69.0192 8.51334 68.1792 8.252C68.1046 8.21467 68.0672 8.09334 68.0672 7.888C68.0672 7.664 68.1139 7.54267 68.2072 7.524C70.3539 7.16934 71.5859 6.95467 71.9032 6.88C71.9592 6.88 72.0152 6.908 72.0712 6.964C72.1459 7.00134 72.1739 7.03867 72.1552 7.076V16.036C72.1552 17.6973 72.4352 18.9013 72.9952 19.648C73.5552 20.376 74.4046 20.74 75.5432 20.74C77.0366 20.74 78.6606 20.0027 80.4152 18.528V11.192C80.4152 10.4267 80.3779 9.86667 80.3032 9.512C80.2659 9.26934 80.1632 9.07334 79.9952 8.924C79.8459 8.77467 79.7059 8.672 79.5752 8.616C79.4446 8.54134 79.1366 8.42 78.6512 8.252C78.5766 8.21467 78.5392 8.09334 78.5392 7.888C78.5579 7.664 78.5952 7.54267 78.6512 7.524C78.7259 7.524 79.9672 7.30934 82.3752 6.88C82.4126 6.88 82.4592 6.908 82.5152 6.964C82.5899 7.00134 82.6272 7.03867 82.6272 7.076Z" fill="white"/>
<path d="M86.9176 22C86.8616 22 86.8336 21.86 86.8336 21.58C86.8336 21.3 86.8616 21.16 86.9176 21.16C87.9629 21.16 88.5789 21.0387 88.7656 20.796C88.9896 20.5347 89.1016 19.9093 89.1016 18.92V11.192C89.1016 10.2587 89.0176 9.60534 88.8496 9.232C88.7376 8.97067 88.5602 8.77467 88.3176 8.644C88.0936 8.51334 87.7109 8.38267 87.1696 8.252C87.1136 8.23334 87.0856 8.112 87.0856 7.888C87.1042 7.664 87.1322 7.54267 87.1696 7.524L90.7816 6.936C91.0989 6.89867 91.2576 6.992 91.2576 7.216C91.2202 8.224 91.1549 9.35334 91.0616 10.604H91.2296C91.6029 9.57734 92.3216 8.70934 93.3856 8C94.4682 7.25334 95.4576 6.88 96.3536 6.88C96.9696 6.88 97.4642 7.02 97.8376 7.3C98.2109 7.56134 98.3976 7.89734 98.3976 8.308C98.3976 8.68134 98.2202 8.98934 97.8656 9.232C97.5109 9.456 97.1002 9.568 96.6336 9.568C95.8309 9.568 95.0469 9.29734 94.2816 8.756H94.2256C94.0202 8.79334 93.7869 8.88667 93.5256 9.036C93.1709 9.22267 92.7696 9.58667 92.3216 10.128C91.8736 10.6507 91.5376 11.2387 91.3136 11.892V18.92C91.3509 19.9653 91.4816 20.5813 91.7056 20.768C91.9482 20.9547 92.7789 21.0853 94.1976 21.16C94.2722 21.16 94.3096 21.3 94.3096 21.58C94.3096 21.86 94.2722 22 94.1976 22H86.9176Z" fill="white"/>
</svg>
